<svg xmlns="http://www.w3.org/2000/svg" fill-rule="evenodd" clip-rule="evenodd" image-rendering="optimizeQuality" shape-rendering="geometricPrecision" text-rendering="geometricPrecision" viewBox="0 0 87.58 40.81">
  <defs/>
  <defs/>
  <g id="Camada_x0020_1">
    <g id="_2350204047072">
      <path fill="#fff" d="M87.23 19.86v-.22h.2l.15.22z"/>
      <path fill="#fff" d="M12.64 1.73c.53.97.34 2.1-.44 2.52-.77.42-1.82-.04-2.35-1.01-.53-.98-.33-2.1.44-2.52.77-.42 1.82.03 2.35 1.01z"/>
      <path fill="#fff" d="M14.44 8.38c0 5.77-3.58 10.69-8.64 12.68 5.7-3.16 6.29-7.66 5.67-11.08-1.05-5.75-6.84-6.15-1.83-4.85h.01c.72.19 1.52.31 2.4.36.27 0 1.7-.05 1.68-1.44 0 0 .31.99.39 1.4.21.94.32 1.92.32 2.93zM18.52 1.73c.53.97.34 2.1-.44 2.52-.77.42-1.82-.04-2.35-1.01-.53-.98-.33-2.1.44-2.52.77-.42 1.82.03 2.35 1.01z"/>
      <path fill="#fff" d="M20.32 8.38c0 5.77-3.58 10.69-8.64 12.68 5.7-3.16 6.29-7.66 5.67-11.08-1.05-5.75-6.84-6.15-1.83-4.85h.01c.72.19 1.52.31 2.4.36.28 0 1.7-.05 1.69-1.44 0 0 .3.99.38 1.4.21.94.32 1.92.32 2.93zM23.82 1.73c.53.97.33 2.1-.44 2.52-.77.42-1.82-.04-2.35-1.01-.53-.98-.33-2.1.44-2.52.77-.42 1.82.03 2.35 1.01z"/>
      <path fill="#fff" d="M25.62 8.38c0 5.77-3.58 10.69-8.64 12.68 5.69-3.16 6.28-7.66 5.66-11.08-1.04-5.75-6.83-6.15-1.82-4.85.73.19 1.53.31 2.41.36.27 0 1.7-.05 1.68-1.44 0 0 .31.99.39 1.4.21.94.32 1.92.32 2.93zM43.73 6.41c0 1.39-.39 2.57-1.16 3.55-.77.97-1.97 1.69-3.59 2.16v.05l6 8.24h-4.41l-5.45-7.76H32.6v7.76h-3.67V.4h6.08c1.01 0 1.95.05 2.81.17.87.11 1.61.29 2.23.52 1.17.44 2.08 1.11 2.72 1.99.64.88.96 1.99.96 3.33zm-9.32 3.18c.83 0 1.54-.04 2.13-.11.58-.08 1.06-.19 1.46-.34.74-.27 1.25-.66 1.53-1.14.29-.48.43-1.04.43-1.67 0-.53-.11-1.01-.34-1.43-.22-.41-.6-.73-1.14-.97-.34-.17-.78-.28-1.31-.36-.53-.07-1.18-.11-1.96-.11H32.6v6.13h1.81zM51.85.4v16.94h9.36v3.07H48.17V.4h3.68zm22.56 2.69c-1 0-1.92.17-2.76.5-.85.33-1.57.81-2.17 1.43-.61.63-1.08 1.41-1.41 2.33-.35.93-.51 1.99-.51 3.17s.15 2.22.46 3.11c.31.89.75 1.64 1.33 2.24.58.59 1.29 1.05 2.12 1.36.83.3 1.77.45 2.83.45.76 0 1.53-.06 2.32-.17.79-.12 1.53-.28 2.22-.5v3.13c-.7.2-1.45.35-2.26.47-.81.11-1.65.16-2.52.16-1.69 0-3.18-.24-4.47-.72-1.28-.49-2.36-1.17-3.23-2.05a8.582 8.582 0 01-1.95-3.17c-.43-1.24-.65-2.6-.65-4.09 0-1.52.23-2.94.7-4.24.46-1.31 1.13-2.45 2.01-3.4.87-.96 1.96-1.71 3.28-2.26C71.06.29 72.55.01 74.2 0c.85 0 1.65.06 2.41.17.76.12 1.44.27 2.05.48v3.09c-.8-.24-1.54-.41-2.23-.5-.69-.1-1.36-.15-2.02-.15zM.13 23.77h86.09v1.45H.13zM6.71 30.03h1.38v2.86H6.71c-.39-1.03-1.06-1.54-2.03-1.54-.79 0-1.39.27-1.8.81-.41.54-.61 1.18-.61 1.94 0 .79.21 1.42.64 1.91.44.49.98.73 1.65.73.55 0 1.02-.18 1.43-.55.41-.37.69-.88.83-1.54l1.6.76c-.61 1.89-1.94 2.83-4.01 2.83-1.46 0-2.56-.39-3.3-1.18C.37 36.27 0 35.28 0 34.08c0-.86.19-1.6.58-2.24.38-.65.9-1.13 1.55-1.45.66-.33 1.37-.49 2.15-.49.97 0 1.78.25 2.43.75v-.62zm7.13-.13c1.4 0 2.5.4 3.3 1.21.8.81 1.21 1.8 1.21 2.96 0 1.17-.41 2.15-1.21 2.96-.81.8-1.91 1.21-3.3 1.21-1.46 0-2.57-.42-3.35-1.25-.77-.83-1.16-1.8-1.16-2.92 0-1.16.4-2.14 1.2-2.95.8-.81 1.9-1.22 3.31-1.22zm-.01 1.48c-.62 0-1.15.23-1.58.7-.44.47-.65 1.15-.65 2.05 0 .8.21 1.43.64 1.91.43.48.96.72 1.59.72.63 0 1.16-.24 1.59-.71.44-.46.66-1.14.66-2.02 0-.79-.21-1.43-.63-1.91-.42-.49-.95-.74-1.62-.74zm5.44 6.76v-1.37h1.08v-5.36h-1.08v-1.38h3.42l2.97 5.06v-3.68H24.6v-1.38h3.64v1.38H27.1v6.79h-1.81l-3.49-6.01v4.58h1.01v1.37h-3.54zm9.47 0v-1.37h1.16v-5.36h-1.16v-1.38H36v2.51h-1.55v-1.13h-2.44v1.87h1.76v1.37h-1.76v2.12h1.24v1.37h-4.51zm7.77 0v-1.37h.98v-5.36h-.98v-1.38h7.16v2.58h-1.55v-1.2h-2.51v1.86h2.03v1.37h-2.03v2.13h2.51v-1.22h1.55v2.59h-7.16zm14.88-8.11h1.37v2.86h-1.37c-.4-1.03-1.07-1.54-2.03-1.54-.8 0-1.4.27-1.81.81-.41.54-.61 1.18-.61 1.94 0 .79.22 1.42.65 1.91.43.49.98.73 1.64.73.55 0 1.03-.18 1.43-.55.41-.37.69-.88.83-1.54l1.6.76c-.6 1.89-1.94 2.83-4.01 2.83-1.46 0-2.55-.39-3.3-1.18-.74-.79-1.11-1.78-1.11-2.98 0-.86.2-1.6.58-2.24.39-.65.9-1.13 1.56-1.45.65-.33 1.36-.49 2.14-.49.97 0 1.78.25 2.44.75v-.62zm7.41 8.19l-.06.32c.33.05.59.17.79.38.19.2.29.43.29.69 0 .33-.15.6-.45.84-.29.24-.9.36-1.81.36-.15 0-.33-.01-.55-.02v-.59c.82 0 1.23-.16 1.23-.48 0-.24-.23-.38-.7-.41l.22-1.11c-1.2-.1-2.13-.53-2.78-1.3-.65-.77-.98-1.71-.98-2.82 0-1.26.4-2.27 1.2-3.03.81-.77 1.83-1.15 3.08-1.15.99 0 1.8.25 2.43.75v-.62h1.38v2.86h-1.38c-.39-1.03-1.06-1.54-2.03-1.54-.79 0-1.39.27-1.8.81-.41.54-.61 1.18-.61 1.94 0 .79.21 1.42.64 1.91.43.49.98.73 1.65.73.54 0 1.02-.18 1.43-.55.41-.37.69-.88.83-1.54l1.6.76c-.52 1.73-1.72 2.66-3.62 2.81zm9.04-8.32c1.39 0 2.5.4 3.3 1.21.8.81 1.2 1.8 1.2 2.96 0 1.17-.4 2.15-1.2 2.96-.81.8-1.91 1.21-3.3 1.21-1.46 0-2.57-.42-3.35-1.25-.78-.83-1.16-1.8-1.16-2.92 0-1.16.4-2.14 1.19-2.95.8-.81 1.91-1.22 3.32-1.22zm-.01 1.48c-.62 0-1.15.23-1.58.7-.44.47-.65 1.15-.65 2.05 0 .8.21 1.43.64 1.91.43.48.96.72 1.59.72.62 0 1.15-.24 1.59-.71.44-.46.65-1.14.65-2.02 0-.79-.2-1.43-.62-1.91a2.04 2.04 0 00-1.62-.74zm1.46-4.08h.82v.14c0 .45-.12.86-.37 1.21-.24.36-.57.53-.98.53-.15 0-.29-.02-.41-.06-.11-.05-.33-.15-.65-.31-.39-.2-.65-.3-.8-.3-.3 0-.45.22-.47.64h-.87c0-.59.13-1.05.4-1.38.27-.33.58-.5.93-.5.23 0 .53.09.89.27.52.28.86.41 1 .41.13 0 .24-.06.34-.19.1-.12.16-.28.17-.46zm4.05 10.84v-1.37h.98v-5.36h-.98v-1.38h7.15v2.58h-1.55v-1.2h-2.51v1.86h2.03v1.37h-2.03v2.13h2.51v-1.22h1.55v2.59h-7.15zm8.14 0v-2.76h1.38c.01.51.14.88.39 1.12.25.23.54.35.86.35.25 0 .46-.08.63-.26.17-.17.25-.37.25-.61 0-.25-.08-.46-.25-.63-.16-.16-.47-.36-.91-.57-.95-.45-1.58-.85-1.92-1.2-.33-.34-.5-.81-.5-1.4 0-.71.22-1.26.66-1.65.45-.39.95-.58 1.51-.58.65 0 1.15.25 1.5.75v-.67h1.37v2.46h-1.37c-.04-.38-.18-.67-.39-.88a1.08 1.08 0 00-.77-.31c-.22 0-.41.06-.57.18-.15.12-.23.28-.23.47 0 .17.06.33.19.48.13.15.51.36 1.13.63.6.27 1.06.51 1.38.73.32.22.57.49.76.84.18.34.28.74.28 1.19 0 .8-.24 1.41-.7 1.81-.47.4-1.02.61-1.66.61-.71 0-1.26-.27-1.64-.79v.69h-1.38z"/>
    </g>
  </g>
</svg>
